<svg id="svg" xmlns="http://www.w3.org/2000/svg" xmlns:xlink="http://www.w3.org/1999/xlink" width="400" height="400" viewBox="0, 0, 400,400"><g id="svgg"><path id="path0" d="M172.100 178.422 C 166.869 178.962,161.736 182.043,158.809 186.400 C 157.935 187.701,157.583 188.352,158.215 187.500 C 164.104 179.559,175.018 177.614,183.100 183.065 C 185.416 184.627,188.641 188.194,188.071 188.562 C 187.954 188.638,186.798 189.375,185.503 190.200 C 184.132 191.073,183.283 191.727,183.472 191.764 C 183.853 191.840,189.928 188.034,190.099 187.613 C 190.347 187.002,187.814 183.955,185.631 182.239 C 181.919 179.320,176.957 177.920,172.100 178.422 M314.456 178.417 C 309.693 178.868,304.327 182.091,301.666 186.100 C 300.732 187.507,300.379 188.158,301.015 187.300 C 307.174 178.995,318.992 177.533,326.617 184.133 C 336.033 192.285,334.424 207.857,323.561 213.711 C 321.941 214.585,322.212 214.591,324.087 213.725 C 336.907 207.802,338.348 189.280,326.602 181.423 C 322.977 178.998,318.922 177.994,314.456 178.417 M68.645 178.911 C 68.356 179.113,68.200 179.430,68.200 179.811 L 68.200 180.400 79.795 180.400 L 91.389 180.400 91.445 183.250 L 91.500 186.100 92.125 186.161 C 93.286 186.274,93.400 185.946,93.400 182.486 C 93.400 179.667,93.365 179.365,93.000 179.000 C 92.448 178.448,69.425 178.365,68.645 178.911 M99.456 178.950 C 99.242 179.143,98.964 179.548,98.838 179.850 L 98.609 180.400 102.426 180.400 C 105.401 180.400,106.220 180.455,106.140 180.650 C 106.083 180.788,104.041 185.760,101.601 191.700 C 99.161 197.640,97.118 202.613,97.061 202.750 C 96.979 202.946,98.118 203.000,102.370 203.000 L 107.784 203.000 107.423 202.150 L 107.062 201.300 103.111 201.246 C 100.081 201.204,99.185 201.134,99.264 200.946 C 101.511 195.600,103.011 191.665,102.932 191.324 C 102.842 190.935,108.185 186.005,108.553 186.138 C 108.611 186.159,111.286 192.620,114.498 200.497 C 120.787 215.919,120.481 215.262,121.326 215.166 C 122.674 215.012,122.553 214.630,116.294 199.300 C 110.519 185.154,110.187 184.399,109.745 184.401 C 109.610 184.401,108.345 185.391,106.934 186.601 C 105.523 187.810,104.341 188.800,104.309 188.800 C 104.277 188.800,105.053 186.844,106.033 184.452 C 108.203 179.163,108.156 179.332,107.572 178.923 C 106.858 178.423,100.015 178.446,99.456 178.950 M123.045 178.911 C 122.756 179.113,122.600 179.430,122.600 179.811 L 122.600 180.400 126.067 180.400 L 129.535 180.400 140.757 196.573 L 151.978 212.746 152.039 213.923 C 152.158 216.221,154.000 215.610,154.000 213.273 C 154.000 211.726,154.105 211.939,151.458 208.134 C 148.860 204.399,148.932 204.477,146.550 202.764 L 144.600 201.362 144.600 199.817 L 144.600 198.272 137.885 188.586 C 134.192 183.259,131.020 178.839,130.835 178.764 C 130.085 178.460,123.512 178.584,123.045 178.911 M145.645 178.911 C 145.356 179.113,145.200 179.430,145.200 179.811 L 145.200 180.400 148.600 180.400 L 152.000 180.400 152.000 192.985 L 152.000 205.571 152.527 205.985 C 153.159 206.483,153.278 206.493,153.686 206.086 C 154.237 205.534,154.155 179.555,153.600 179.000 C 153.058 178.458,146.397 178.384,145.645 178.911 M203.456 178.950 C 203.242 179.143,202.964 179.548,202.838 179.850 L 202.609 180.400 206.426 180.400 C 209.401 180.400,210.220 180.455,210.140 180.650 C 210.083 180.788,208.041 185.760,205.601 191.700 C 203.161 197.640,201.118 202.613,201.061 202.750 C 200.979 202.946,202.118 203.000,206.370 203.000 L 211.784 203.000 211.423 202.150 L 211.062 201.300 207.111 201.246 C 204.081 201.204,203.185 201.134,203.264 200.946 C 205.511 195.600,207.011 191.665,206.932 191.324 C 206.842 190.935,212.185 186.005,212.553 186.138 C 212.611 186.159,215.278 192.594,218.480 200.438 C 221.681 208.282,224.374 214.813,224.462 214.950 C 224.806 215.483,226.400 215.051,226.400 214.425 C 226.400 214.154,214.582 185.305,214.285 184.850 C 213.836 184.163,213.687 184.241,210.934 186.601 C 209.523 187.810,208.341 188.800,208.309 188.800 C 208.277 188.800,209.053 186.844,210.033 184.452 C 212.203 179.163,212.156 179.332,211.572 178.923 C 210.858 178.423,204.015 178.446,203.456 178.950 M227.445 178.911 C 227.156 179.113,227.000 179.430,227.000 179.811 L 227.000 180.400 229.499 180.400 L 231.997 180.400 237.223 188.250 C 240.097 192.567,242.523 196.180,242.613 196.279 C 242.704 196.377,245.167 192.854,248.101 188.429 L 253.424 180.400 256.212 180.400 L 259.000 180.400 259.000 182.633 L 259.000 184.866 251.200 196.636 C 246.910 203.109,243.400 208.487,243.400 208.586 C 243.400 208.855,243.856 208.968,244.209 208.788 C 244.662 208.556,251.799 197.764,251.808 197.296 C 251.815 196.950,257.901 192.533,258.769 192.244 C 258.942 192.186,259.000 195.069,259.000 203.683 L 259.000 215.200 259.586 215.200 C 260.854 215.200,260.800 215.755,260.800 202.800 C 260.800 188.317,261.256 189.521,256.900 192.494 C 255.580 193.395,254.387 194.198,254.249 194.278 C 254.111 194.359,255.528 192.096,257.399 189.248 L 260.800 184.071 260.800 181.647 C 260.800 178.542,260.862 178.599,257.505 178.603 C 256.182 178.604,254.900 178.659,254.656 178.724 C 254.345 178.808,252.702 181.136,249.156 186.517 C 246.375 190.737,244.047 194.192,243.982 194.195 C 243.916 194.198,241.580 190.773,238.790 186.585 C 236.000 182.396,233.561 178.886,233.371 178.785 C 232.752 178.453,227.952 178.556,227.445 178.911 M263.445 178.911 C 263.156 179.113,263.000 179.430,263.000 179.811 L 263.000 180.400 265.499 180.400 L 267.997 180.400 273.223 188.250 C 276.097 192.567,278.523 196.180,278.613 196.279 C 278.704 196.377,281.167 192.854,284.101 188.429 L 289.424 180.400 292.212 180.400 L 295.000 180.400 295.000 182.633 L 295.000 184.866 287.200 196.636 C 282.910 203.109,279.400 208.487,279.400 208.586 C 279.400 208.855,279.856 208.968,280.209 208.788 C 280.662 208.556,287.799 197.764,287.808 197.296 C 287.815 196.950,293.901 192.533,294.769 192.244 C 294.942 192.186,295.000 195.069,295.000 203.683 L 295.000 215.200 295.586 215.200 C 296.854 215.200,296.800 215.755,296.800 202.800 C 296.800 188.317,297.256 189.521,292.900 192.494 C 291.580 193.395,290.387 194.198,290.249 194.278 C 290.111 194.359,291.528 192.096,293.399 189.248 L 296.800 184.071 296.800 181.647 C 296.800 178.542,296.862 178.599,293.505 178.603 C 292.182 178.604,290.900 178.659,290.656 178.724 C 290.345 178.808,288.702 181.136,285.156 186.517 C 282.375 190.737,280.047 194.192,279.982 194.195 C 279.916 194.198,277.580 190.773,274.790 186.585 C 272.000 182.396,269.561 178.886,269.371 178.785 C 268.752 178.453,263.952 178.556,263.445 178.911 M74.849 200.739 L 74.900 215.100 75.525 215.161 C 76.836 215.288,76.800 215.555,76.796 205.536 C 76.792 197.087,76.767 196.446,76.411 195.662 L 76.030 194.824 76.465 194.762 C 76.704 194.728,79.218 194.725,82.050 194.756 L 87.200 194.813 87.200 198.006 L 87.200 201.200 87.713 201.200 C 88.984 201.200,89.000 201.150,89.000 197.088 L 89.000 193.390 88.487 193.195 C 87.822 192.942,77.599 192.943,77.200 193.196 C 76.939 193.362,76.887 192.940,76.800 189.943 L 76.700 186.500 75.749 186.439 L 74.797 186.378 74.849 200.739 M168.387 187.438 C 158.844 192.207,161.224 207.775,171.749 209.434 C 175.576 210.037,181.158 207.027,182.242 203.775 C 182.297 203.609,187.502 206.718,188.179 207.321 C 188.797 207.872,184.201 212.242,181.350 213.814 C 179.991 214.563,180.257 214.560,181.918 213.807 C 185.385 212.235,190.587 207.389,190.099 206.187 C 189.952 205.824,183.950 202.000,183.528 202.000 C 183.356 202.000,182.863 202.518,182.432 203.150 C 178.670 208.677,172.029 209.462,167.483 204.917 C 162.491 199.924,163.275 191.393,169.087 187.479 C 170.354 186.625,170.049 186.608,168.387 187.438 M311.094 187.673 C 301.462 192.325,303.861 207.639,314.450 209.094 L 315.400 209.225 315.400 212.289 C 315.400 215.290,315.409 215.356,315.846 215.470 C 317.340 215.861,317.864 212.224,316.608 210.183 C 315.952 209.115,315.917 209.166,317.500 208.901 C 319.573 208.555,322.615 206.341,323.686 204.400 C 324.034 203.770,323.941 203.822,322.754 204.927 C 319.791 207.683,316.029 208.261,312.474 206.506 C 305.435 203.031,305.077 191.491,311.888 187.584 C 313.262 186.796,312.804 186.848,311.094 187.673 M173.573 191.209 C 172.137 191.379,170.904 191.977,169.861 193.010 C 168.333 194.523,168.336 194.664,169.967 197.356 L 171.388 199.700 170.080 199.759 C 167.765 199.865,168.603 200.286,171.354 200.400 L 173.776 200.500 173.063 201.665 C 172.580 202.453,172.415 202.895,172.553 203.033 C 172.730 203.210,174.712 200.184,175.127 199.101 C 175.191 198.936,175.301 198.802,175.371 198.805 C 175.482 198.809,176.986 201.329,177.163 201.808 C 177.198 201.902,176.838 202.264,176.363 202.612 C 175.730 203.077,175.633 203.207,176.000 203.097 C 180.520 201.753,181.938 196.309,178.644 192.948 C 177.788 192.074,175.729 191.004,175.447 191.286 C 175.392 191.341,175.202 191.316,175.024 191.231 C 174.846 191.146,174.193 191.136,173.573 191.209 M315.773 191.209 C 314.337 191.379,313.104 191.977,312.061 193.010 C 310.533 194.523,310.536 194.664,312.167 197.356 L 313.588 199.700 312.280 199.759 C 309.965 199.865,310.803 200.286,313.554 200.400 L 315.976 200.500 315.263 201.665 C 314.780 202.453,314.615 202.895,314.753 203.033 C 314.930 203.210,316.912 200.184,317.327 199.101 C 317.391 198.936,317.501 198.802,317.571 198.805 C 317.682 198.809,319.186 201.329,319.363 201.808 C 319.398 201.902,319.038 202.264,318.563 202.612 C 317.930 203.077,317.833 203.207,318.200 203.097 C 322.720 201.753,324.138 196.309,320.844 192.948 C 319.988 192.074,317.929 191.004,317.647 191.286 C 317.592 191.341,317.402 191.316,317.224 191.231 C 317.046 191.146,316.393 191.136,315.773 191.209 M173.600 192.915 C 173.600 193.100,170.910 197.590,170.800 197.589 C 170.662 197.588,169.000 194.833,169.000 194.605 C 169.000 194.315,170.257 193.430,171.118 193.115 C 171.893 192.831,173.600 192.694,173.600 192.915 M176.749 194.108 C 177.162 194.464,177.663 195.035,177.861 195.378 L 178.223 196.000 176.911 196.000 C 174.798 196.000,175.282 196.532,177.500 196.648 L 178.500 196.700 178.559 198.042 C 178.618 199.379,177.983 201.537,177.601 201.301 C 177.517 201.249,177.062 200.531,176.589 199.704 C 175.838 198.391,175.690 198.235,175.415 198.466 C 174.636 199.120,173.478 198.892,172.932 197.977 L 172.425 197.127 172.826 196.563 C 173.164 196.089,173.178 196.000,172.914 196.000 C 172.480 196.000,173.174 194.467,174.241 193.069 C 174.489 192.744,175.794 193.284,176.749 194.108 M315.800 192.915 C 315.800 193.100,313.110 197.590,313.000 197.589 C 312.862 197.588,311.200 194.833,311.200 194.605 C 311.200 194.315,312.457 193.430,313.318 193.115 C 314.093 192.831,315.800 192.694,315.800 192.915 M318.949 194.108 C 319.362 194.464,319.863 195.035,320.061 195.378 L 320.423 196.000 319.111 196.000 C 316.998 196.000,317.482 196.532,319.700 196.648 L 320.700 196.700 320.759 198.042 C 320.818 199.379,320.183 201.537,319.801 201.301 C 319.717 201.249,319.262 200.531,318.789 199.704 C 318.038 198.391,317.890 198.235,317.615 198.466 C 316.836 199.120,315.678 198.892,315.132 197.977 L 314.625 197.127 315.026 196.563 C 315.364 196.089,315.378 196.000,315.114 196.000 C 314.680 196.000,315.374 194.467,316.441 193.069 C 316.689 192.744,317.994 193.284,318.949 194.108 M129.600 204.452 L 129.600 215.200 130.186 215.200 C 131.435 215.200,131.400 215.481,131.400 205.479 L 131.400 196.387 130.500 195.046 L 129.600 193.704 129.600 204.452 M233.648 205.408 L 233.700 215.100 234.325 215.161 C 235.623 215.287,235.600 215.439,235.600 206.617 L 235.600 198.662 234.779 197.381 C 234.328 196.676,233.877 196.014,233.778 195.908 C 233.669 195.793,233.617 199.602,233.648 205.408 M269.648 205.408 L 269.700 215.100 270.325 215.161 C 271.623 215.287,271.600 215.439,271.600 206.617 L 271.600 198.662 270.779 197.381 C 270.328 196.676,269.877 196.014,269.778 195.908 C 269.669 195.793,269.617 199.602,269.648 205.408 M93.231 212.090 C 91.811 215.424,91.866 215.200,92.462 215.200 C 93.244 215.200,93.541 214.789,94.689 212.111 C 95.999 209.059,95.977 209.200,95.131 209.200 L 94.463 209.200 93.231 212.090 M197.231 212.090 C 195.811 215.424,195.866 215.200,196.462 215.200 C 197.244 215.200,197.541 214.789,198.689 212.111 C 199.999 209.059,199.977 209.200,199.131 209.200 L 198.463 209.200 197.231 212.090 " stroke="none" fill="#858585" fill-rule="evenodd"></path><path id="path1" d="M170.100 180.281 C 165.243 181.096,160.689 183.974,158.225 187.786 C 157.805 188.436,157.319 189.110,157.145 189.283 C 156.972 189.457,156.561 190.297,156.232 191.150 C 151.699 202.923,159.673 215.303,172.080 215.752 C 176.148 215.900,177.108 215.691,181.112 213.788 C 184.247 212.299,188.680 207.841,187.723 207.141 C 186.067 205.930,182.316 203.751,182.247 203.959 C 181.836 205.193,179.287 207.661,177.500 208.555 C 168.342 213.140,158.824 202.417,163.390 192.659 C 167.034 184.871,177.028 184.099,181.630 191.250 C 182.306 192.300,182.439 192.361,182.950 191.850 C 183.143 191.658,184.357 190.825,185.649 190.000 C 188.322 188.293,188.224 188.459,187.302 187.203 C 183.517 182.046,176.472 179.211,170.100 180.281 M312.886 180.196 C 307.984 180.889,303.030 184.106,300.675 188.125 C 300.393 188.606,300.090 189.000,300.002 189.000 C 299.709 189.000,298.433 192.508,298.114 194.188 C 296.242 204.060,302.007 213.304,311.400 215.491 C 313.224 215.916,315.486 215.912,315.321 215.484 C 315.255 215.310,315.200 213.825,315.200 212.184 L 315.200 209.200 314.550 209.195 C 309.462 209.157,305.000 203.879,305.000 197.900 C 305.000 190.357,311.114 185.256,317.940 187.103 C 323.295 188.553,326.631 195.177,324.989 201.100 C 324.775 201.870,324.552 202.725,324.493 203.000 C 323.999 205.299,320.648 208.200,317.590 208.976 L 316.219 209.324 316.703 210.112 C 316.970 210.545,317.190 211.001,317.194 211.125 C 317.197 211.248,317.713 212.222,318.340 213.289 L 319.480 215.230 320.190 215.097 C 320.580 215.024,320.998 214.883,321.118 214.784 C 321.239 214.685,321.396 214.663,321.468 214.735 C 321.541 214.807,321.600 214.770,321.600 214.653 C 321.600 214.535,321.893 214.337,322.250 214.213 C 330.408 211.369,334.875 200.042,331.395 191.019 C 328.568 183.688,320.705 179.090,312.886 180.196 M67.600 198.000 L 67.600 215.600 71.250 215.600 L 74.900 215.600 74.846 201.050 L 74.792 186.500 83.225 186.570 C 91.063 186.635,91.649 186.617,91.529 186.304 C 91.458 186.119,91.400 184.715,91.400 183.184 L 91.400 180.400 79.500 180.400 L 67.600 180.400 67.600 198.000 M91.329 197.788 C 87.408 207.352,84.200 215.274,84.200 215.392 C 84.200 215.893,91.892 215.559,91.963 215.055 C 91.998 214.811,92.543 213.416,93.175 211.955 L 94.324 209.300 95.062 209.310 C 95.468 209.315,99.074 209.338,103.076 209.360 L 110.352 209.400 111.626 212.496 L 112.900 215.592 116.750 215.596 C 120.401 215.600,120.844 215.539,120.420 215.090 C 120.322 214.985,117.657 208.555,114.499 200.800 C 111.342 193.045,108.698 186.591,108.625 186.457 C 108.382 186.012,103.096 190.723,103.118 191.365 C 103.137 191.922,106.568 200.448,107.196 201.500 C 107.393 201.830,107.616 202.303,107.691 202.550 L 107.827 203.000 102.339 203.000 L 96.850 203.000 101.423 191.850 C 103.938 185.718,105.997 180.633,105.998 180.550 C 105.999 180.468,104.303 180.400,102.229 180.400 L 98.458 180.400 91.329 197.788 M122.009 197.996 L 122.033 215.600 125.766 215.600 L 129.500 215.600 129.443 206.950 C 129.411 202.193,129.411 197.183,129.443 195.818 L 129.500 193.336 130.450 194.766 C 130.972 195.552,131.400 196.254,131.400 196.326 C 131.400 196.399,134.386 200.765,138.035 206.029 L 144.669 215.600 148.394 215.600 L 152.119 215.600 152.035 214.250 L 151.951 212.900 140.714 196.700 L 129.477 180.500 125.731 180.446 L 121.985 180.391 122.009 197.996 M144.600 188.769 C 144.600 193.372,144.659 198.097,144.730 199.269 L 144.861 201.401 146.980 202.993 C 148.146 203.870,149.761 205.091,150.568 205.709 C 151.375 206.326,152.050 206.801,152.068 206.765 C 152.086 206.729,152.074 200.783,152.042 193.550 L 151.984 180.400 148.292 180.400 L 144.600 180.400 144.600 188.769 M195.329 197.788 C 191.408 207.352,188.200 215.274,188.200 215.392 C 188.200 215.893,195.892 215.559,195.963 215.055 C 195.998 214.811,196.543 213.416,197.175 211.955 L 198.324 209.300 199.062 209.310 C 199.468 209.315,203.074 209.338,207.076 209.360 L 214.352 209.400 215.626 212.496 L 216.900 215.592 220.750 215.596 C 224.401 215.600,224.844 215.539,224.420 215.090 C 224.322 214.985,221.657 208.555,218.499 200.800 C 215.342 193.045,212.698 186.591,212.625 186.457 C 212.382 186.012,207.096 190.723,207.118 191.365 C 207.137 191.922,210.568 200.448,211.196 201.500 C 211.393 201.830,211.616 202.303,211.691 202.550 L 211.827 203.000 206.339 203.000 L 200.850 203.000 205.423 191.850 C 207.938 185.718,209.997 180.633,209.998 180.550 C 209.999 180.468,208.303 180.400,206.229 180.400 L 202.458 180.400 195.329 197.788 M226.400 198.000 L 226.400 215.600 230.050 215.600 L 233.700 215.600 233.644 208.350 C 233.612 204.363,233.612 199.840,233.644 198.300 L 233.700 195.500 234.650 196.985 C 235.173 197.802,235.600 198.545,235.600 198.636 C 235.600 198.995,242.669 209.381,242.841 209.275 C 242.942 209.212,243.100 208.963,243.192 208.721 C 243.284 208.479,246.834 203.037,251.080 196.628 L 258.800 184.975 258.800 182.688 L 258.800 180.400 256.150 180.406 L 253.500 180.412 248.417 188.124 C 245.622 192.366,243.187 196.019,243.005 196.243 C 242.687 196.636,242.491 196.371,237.301 188.525 L 231.926 180.400 229.163 180.400 L 226.400 180.400 226.400 198.000 M262.400 198.000 L 262.400 215.600 266.050 215.600 L 269.700 215.600 269.644 208.350 C 269.612 204.363,269.612 199.840,269.644 198.300 L 269.700 195.500 270.650 196.985 C 271.173 197.802,271.600 198.545,271.600 198.636 C 271.600 198.995,278.669 209.381,278.841 209.275 C 278.942 209.212,279.100 208.963,279.192 208.721 C 279.284 208.479,282.834 203.037,287.080 196.628 L 294.800 184.975 294.800 182.688 L 294.800 180.400 292.150 180.406 L 289.500 180.412 284.417 188.124 C 281.622 192.366,279.187 196.019,279.005 196.243 C 278.687 196.636,278.491 196.371,273.301 188.525 L 267.926 180.400 265.163 180.400 L 262.400 180.400 262.400 198.000 M255.500 194.512 C 253.850 195.661,252.343 196.735,252.150 196.898 C 251.826 197.174,251.800 197.881,251.800 206.398 L 251.800 215.600 255.423 215.600 L 259.047 215.600 258.926 215.150 C 258.860 214.903,258.804 209.683,258.803 203.550 C 258.801 197.418,258.733 192.405,258.650 192.411 C 258.568 192.417,257.150 193.362,255.500 194.512 M291.500 194.512 C 289.850 195.661,288.343 196.735,288.150 196.898 C 287.826 197.174,287.800 197.881,287.800 206.398 L 287.800 215.600 291.423 215.600 L 295.047 215.600 294.926 215.150 C 294.860 214.903,294.804 209.683,294.803 203.550 C 294.801 197.418,294.733 192.405,294.650 192.411 C 294.568 192.417,293.150 193.362,291.500 194.512 M171.700 193.078 C 170.680 193.399,170.012 193.748,169.468 194.243 L 169.035 194.636 169.867 196.018 C 170.875 197.695,170.721 197.701,171.746 195.948 C 172.212 195.151,172.824 194.118,173.108 193.650 L 173.623 192.800 173.061 192.813 C 172.753 192.821,172.140 192.940,171.700 193.078 M313.900 193.078 C 312.880 193.399,312.212 193.748,311.668 194.243 L 311.235 194.636 312.067 196.018 C 313.075 197.695,312.921 197.701,313.946 195.948 C 314.412 195.151,315.024 194.118,315.308 193.650 L 315.823 192.800 315.261 192.813 C 314.953 192.821,314.340 192.940,313.900 193.078 M173.528 194.328 C 172.494 196.095,172.684 196.185,176.696 195.825 L 178.092 195.700 177.309 194.834 C 176.631 194.085,174.928 192.992,174.457 193.004 C 174.370 193.006,173.952 193.602,173.528 194.328 M315.728 194.328 C 314.694 196.095,314.884 196.185,318.896 195.825 L 320.292 195.700 319.509 194.834 C 318.831 194.085,317.128 192.992,316.657 193.004 C 316.570 193.006,316.152 193.602,315.728 194.328 M76.200 194.891 C 76.200 195.084,76.700 196.207,77.963 198.850 L 79.277 201.600 83.238 201.600 L 87.200 201.600 87.200 198.200 L 87.200 194.800 81.700 194.800 C 78.675 194.800,76.200 194.841,76.200 194.891 M168.008 195.984 C 167.663 196.661,167.594 197.104,167.642 198.358 L 167.700 199.900 169.400 199.828 C 170.335 199.788,171.131 199.727,171.169 199.692 C 171.234 199.633,168.902 195.696,168.582 195.326 C 168.500 195.231,168.241 195.527,168.008 195.984 M310.208 195.984 C 309.863 196.661,309.794 197.104,309.842 198.358 L 309.900 199.900 311.600 199.828 C 312.535 199.788,313.331 199.727,313.369 199.692 C 313.434 199.633,311.102 195.696,310.782 195.326 C 310.700 195.231,310.441 195.527,310.208 195.984 M174.800 196.617 C 174.800 196.845,175.356 197.744,175.803 198.239 C 175.971 198.425,176.422 199.167,176.804 199.887 C 177.187 200.607,177.560 201.197,177.633 201.198 C 178.133 201.205,178.831 197.125,178.396 196.741 C 178.175 196.545,174.800 196.429,174.800 196.617 M317.000 196.617 C 317.000 196.845,317.556 197.744,318.003 198.239 C 318.171 198.425,318.622 199.167,319.004 199.887 C 319.387 200.607,319.760 201.197,319.833 201.198 C 320.333 201.205,321.031 197.125,320.596 196.741 C 320.375 196.545,317.000 196.429,317.000 196.617 M174.240 200.884 C 173.658 201.919,173.050 202.875,172.890 203.008 C 171.755 203.951,174.347 203.842,175.764 202.887 C 177.138 201.962,177.147 201.912,176.257 200.344 C 175.321 198.696,175.498 198.649,174.240 200.884 M316.440 200.884 C 315.858 201.919,315.250 202.875,315.090 203.008 C 313.955 203.951,316.547 203.842,317.964 202.887 C 319.338 201.962,319.347 201.912,318.457 200.344 C 317.521 198.696,317.698 198.649,316.440 200.884 M168.000 200.611 C 168.000 201.018,169.823 202.722,170.692 203.127 C 171.900 203.689,172.200 203.714,172.201 203.250 C 172.201 203.058,172.516 202.378,172.901 201.740 C 173.285 201.102,173.599 200.562,173.599 200.540 C 173.595 200.427,168.000 200.497,168.000 200.611 M310.200 200.611 C 310.200 201.018,312.023 202.722,312.892 203.127 C 314.100 203.689,314.400 203.714,314.401 203.250 C 314.401 203.058,314.716 202.378,315.101 201.740 C 315.485 201.102,315.799 200.562,315.799 200.540 C 315.795 200.427,310.200 200.497,310.200 200.611 " stroke="none" fill="#fbfbfb" fill-rule="evenodd"></path><path id="path2" d="" stroke="none" fill="#bcbcbc" fill-rule="evenodd"></path><path id="path3" d="M129.493 204.300 C 129.493 210.240,129.519 212.641,129.550 209.636 C 129.581 206.631,129.581 201.771,129.550 198.836 C 129.519 195.901,129.493 198.360,129.493 204.300 M162.250 197.900 C 162.253 198.340,162.294 198.496,162.341 198.248 C 162.389 197.999,162.387 197.639,162.337 197.448 C 162.287 197.256,162.248 197.460,162.250 197.900 " stroke="none" fill="#b4b4b4" fill-rule="evenodd"></path><path id="path4" d="M258.876 182.600 C 258.876 183.865,258.908 184.383,258.948 183.750 C 258.987 183.118,258.987 182.083,258.948 181.450 C 258.908 180.817,258.876 181.335,258.876 182.600 M294.876 182.600 C 294.876 183.865,294.908 184.383,294.948 183.750 C 294.987 183.118,294.987 182.083,294.948 181.450 C 294.908 180.817,294.876 181.335,294.876 182.600 M185.600 185.300 C 185.973 185.685,186.323 186.000,186.378 186.000 C 186.433 186.000,186.173 185.685,185.800 185.300 C 185.427 184.915,185.077 184.600,185.022 184.600 C 184.967 184.600,185.227 184.915,185.600 185.300 M258.751 199.550 C 258.778 203.592,258.825 208.745,258.855 211.000 C 258.884 213.255,258.929 209.947,258.954 203.650 C 258.979 197.353,258.933 192.200,258.850 192.200 C 258.768 192.200,258.723 195.507,258.751 199.550 M294.751 199.550 C 294.778 203.592,294.825 208.745,294.855 211.000 C 294.884 213.255,294.929 209.947,294.954 203.650 C 294.979 197.353,294.933 192.200,294.850 192.200 C 294.768 192.200,294.723 195.507,294.751 199.550 M176.150 195.945 C 176.508 195.989,177.093 195.989,177.450 195.945 C 177.808 195.900,177.515 195.864,176.800 195.864 C 176.085 195.864,175.793 195.900,176.150 195.945 M318.350 195.945 C 318.707 195.989,319.293 195.989,319.650 195.945 C 320.007 195.900,319.715 195.864,319.000 195.864 C 318.285 195.864,317.993 195.900,318.350 195.945 M332.669 197.900 C 332.669 198.780,332.704 199.115,332.747 198.645 C 332.789 198.174,332.788 197.454,332.745 197.045 C 332.702 196.635,332.668 197.020,332.669 197.900 M144.666 199.900 C 144.667 200.670,144.703 200.960,144.746 200.546 C 144.789 200.131,144.789 199.501,144.744 199.146 C 144.700 198.790,144.665 199.130,144.666 199.900 M170.257 200.548 C 170.894 200.588,171.884 200.587,172.457 200.547 C 173.031 200.507,172.510 200.474,171.300 200.475 C 170.090 200.475,169.621 200.508,170.257 200.548 M312.457 200.548 C 313.094 200.588,314.084 200.587,314.657 200.547 C 315.231 200.507,314.710 200.474,313.500 200.475 C 312.290 200.475,311.821 200.508,312.457 200.548 M180.087 206.650 L 179.500 207.300 180.150 206.713 C 180.508 206.390,180.800 206.097,180.800 206.063 C 180.800 205.908,180.635 206.044,180.087 206.650 M315.281 212.300 C 315.281 214.060,315.312 214.753,315.349 213.841 C 315.386 212.928,315.386 211.488,315.348 210.641 C 315.311 209.793,315.281 210.540,315.281 212.300 M185.589 210.550 L 184.900 211.300 185.650 210.611 C 186.348 209.969,186.492 209.800,186.339 209.800 C 186.306 209.800,185.968 210.138,185.589 210.550 M327.389 210.750 L 326.700 211.500 327.450 210.811 C 327.863 210.432,328.200 210.094,328.200 210.061 C 328.200 209.908,328.031 210.052,327.389 210.750 " stroke="none" fill="#d0d0d0" fill-rule="evenodd"></path></g></svg>