<?xml version="1.0" encoding="UTF-8" standalone="no"?>
<svg width="20px" height="20px" viewBox="0 0 20 20" version="1.1" xmlns="http://www.w3.org/2000/svg" xmlns:xlink="http://www.w3.org/1999/xlink">
    <!-- Generator: Sketch 43.2 (39069) - http://www.bohemiancoding.com/sketch -->
    <title>Artboard</title>
    <desc>Created with Sketch.</desc>
    <defs></defs>
    <g id="Symbols" stroke="none" stroke-width="1" fill="none" fill-rule="evenodd">
        <g id="Artboard" fill="#FFFFFF">
            <g id="Group-Copy" transform="translate(1.000000, 0.000000)">
                <polygon id="Rectangle-5-Copy-4" transform="translate(13.240095, 12.557705) scale(-1, 1) translate(-13.240095, -12.557705) " points="9.41517857 9.38219309 17.0650112 12.2690217 17.0650112 15.7332161 9.41517857 12.8463875"></polygon>
                <polygon id="Rectangle-5-Copy-10" opacity="0.5" transform="translate(13.240095, 10.248242) scale(-1, 1) translate(-13.240095, -10.248242) " points="12.2103097 8.22746164 16.4765625 9.67087596 17.0650112 12.2690217 9.41517857 9.38219309"></polygon>
                <path d="M9.56925463,2.3205661 L3.3835798,0 L0,1.44341432 L6.05805516,3.76527246 L5.73737444,3.89721867 L9.41517857,5.05195013 L13.387207,3.75287724 L13.0928078,3.64243287 L18.8303571,1.44341432 L14.8583287,0.144341432 L9.56925463,2.3205661 Z" id="Combined-Shape" opacity="0.5"></path>
                <polyline id="Rectangle-5-Copy-3" points="18.8303571 1.44341432 9.41517857 5.05195013 9.41517857 9.09351023 18.8303571 5.48497442"></polyline>
                <polyline id="Rectangle-5-Copy-6" transform="translate(4.707589, 5.268462) scale(-1, 1) translate(-4.707589, -5.268462) " points="9.41517857 1.44341432 1.06048503e-12 5.05195013 1.06048503e-12 9.09351023 9.41517857 5.48497442"></polyline>
                <path d="M9.41517857,20.5434783 L12.3574219,18.4757033 L12.3574219,3.94051934 L9.41517857,5.25 L6.47293527,3.94051934 L6.47293527,18.4757033 L9.00326451,20.2539898 L9.00326451,8.29862884 L9.41517857,8.67391304 L9.41517857,20.5434783 Z" id="Combined-Shape"></path>
                <polygon id="Rectangle-6-Copy-9" opacity="0.5" transform="translate(8.915179, 14.615544) scale(-1, 1) translate(-8.915179, -14.615544) " points="8.41517857 9.08166824 8.8859375 8.67391304 8.8859375 20.2239075 8.41517857 20.5571742"></polygon>
            </g>
        </g>
    </g>
</svg>