<?xml version="1.0" encoding="UTF-8" standalone="no"?>
<svg width="26px" height="26px" viewBox="0 0 26 26" version="1.1" xmlns="http://www.w3.org/2000/svg" xmlns:xlink="http://www.w3.org/1999/xlink">
    <!-- Generator: Sketch 43.2 (39069) - http://www.bohemiancoding.com/sketch -->
    <title>Artboard</title>
    <desc>Created with Sketch.</desc>
    <defs></defs>
    <g id="Page-1" stroke="none" stroke-width="1" fill="none" fill-rule="evenodd">
        <g id="Artboard" fill-rule="nonzero" fill="#C3C4CC">
            <g id="Movie_000000" transform="translate(0.000000, 2.000000)">
                <path d="M0,0 L0,1 L0,21 L0,22 L1,22 L25,22 L26,22 L26,21 L26,1 L26,0 L25,0 L1,0 L0,0 Z M2,2 L12,2 L12,20 L2,20 L2,18 L3,18 L3,16 L2,16 L2,6 L3,6 L3,4 L2,4 L2,2 Z M14,2 L24,2 L24,4 L23,4 L23,6 L24,6 L24,16 L23,16 L23,18 L24,18 L24,20 L14,20 L14,2 Z M5,4 L5,6 L7,6 L7,4 L5,4 Z M9,4 L9,6 L11,6 L11,4 L9,4 Z M15,4 L15,6 L17,6 L17,4 L15,4 Z M19,4 L19,6 L21,6 L21,4 L19,4 Z M5,16 L5,18 L7,18 L7,16 L5,16 Z M9,16 L9,18 L11,18 L11,16 L9,16 Z M15,16 L15,18 L17,18 L17,16 L15,16 Z M19,16 L19,18 L21,18 L21,16 L19,16 Z" id="Shape"></path>
            </g>
        </g>
    </g>
</svg>