<?xml version="1.0" encoding="UTF-8"?>
<svg width="32px" height="32px" viewBox="0 0 32 32" version="1.1" xmlns="http://www.w3.org/2000/svg" xmlns:xlink="http://www.w3.org/1999/xlink">
    <!-- Generator: Sketch 47.1 (45422) - http://www.bohemiancoding.com/sketch -->
    <title>Artboard</title>
    <desc>Created with Sketch.</desc>
    <defs></defs>
    <g id="Page-1" stroke="none" stroke-width="1" fill="none" fill-rule="evenodd">
        <g id="Artboard" fill-rule="nonzero" fill="#E91F63">
            <path d="M16,9 L11.2,13.8 L8,13.8 L8,18.6 L11.2,18.6 L16,23.4 L16,9 Z M17.6,9.075 L17.6,10.675 C20.3187504,11.075 22.4,13.4 22.4,16.2 C22.4,19 20.3187504,21.325 17.6,21.725 L17.6,23.325 C21.2,22.925 24,19.8812504 24,16.2 C24,12.5187504 21.2,9.475 17.6,9.075 Z M17.6,13.075 L17.6,19.25 C18.9593752,18.9312504 20,17.7187504 20,16.2 C20,14.6812504 18.9593752,13.475 17.6,13.075 Z" id="Shape"></path>
        </g>
    </g>
</svg>