<?xml version="1.0" encoding="UTF-8" standalone="no"?>
<svg width="72px" height="72px" viewBox="0 0 72 72" version="1.1" xmlns="http://www.w3.org/2000/svg" xmlns:xlink="http://www.w3.org/1999/xlink">
    <!-- Generator: Sketch 43.2 (39069) - http://www.bohemiancoding.com/sketch -->
    <title>Artboard</title>
    <desc>Created with Sketch.</desc>
    <defs></defs>
    <g id="website---fan---design" stroke="none" stroke-width="1" fill="none" fill-rule="evenodd" opacity="0.25">
        <g id="Artboard" fill-rule="nonzero" fill="#0D1231">
            <g id="icon-avatar" transform="translate(24.000000, 24.000000)">
                <g id="website---fan---design">
                    <g id="design---request">
                        <g id="section-request">
                            <g id="input-image">
                                <g id="image">
                                    <g id="icon-user">
                                        <path d="M12,0 C5.4,0 0,5.4 0,12 C0,18.6 5.4,24 12,24 C18.6,24 24,18.6 24,12 C24,5.4 18.6,0 12,0 Z M6.12,19.56 C6.48,16.68 9,14.4 12,14.4 C15,14.4 17.52,16.68 17.88,19.56 C16.32,20.88 14.28,21.6 12,21.6 C9.72,21.6 7.68,20.88 6.12,19.56 Z M19.92,17.52 C18.72,14.28 15.6,12 12,12 C8.4,12 5.28,14.28 4.08,17.52 C3,15.96 2.4,14.04 2.4,12 C2.4,6.72 6.72,2.4 12,2.4 C17.28,2.4 21.6,6.72 21.6,12 C21.6,14.04 21,15.96 19.92,17.52 Z" id="Shape"></path>
                                        <path d="M12,3.6 C9.96,3.6 8.4,5.16 8.4,7.2 C8.4,9.24 9.96,10.8 12,10.8 C14.04,10.8 15.6,9.24 15.6,7.2 C15.6,5.16 14.04,3.6 12,3.6 Z M12,8.4 C11.28,8.4 10.8,7.92 10.8,7.2 C10.8,6.48 11.28,6 12,6 C12.72,6 13.2,6.48 13.2,7.2 C13.2,7.92 12.72,8.4 12,8.4 Z" id="Shape"></path>
                                    </g>
                                </g>
                            </g>
                        </g>
                    </g>
                </g>
            </g>
        </g>
    </g>
</svg>