<?xml version="1.0" encoding="UTF-8" standalone="no"?>
<svg width="16px" height="16px" viewBox="0 0 16 16" version="1.1" xmlns="http://www.w3.org/2000/svg" xmlns:xlink="http://www.w3.org/1999/xlink">
    <!-- Generator: Sketch 41.2 (35397) - http://www.bohemiancoding.com/sketch -->
    <title>Artboard</title>
    <desc>Created with Sketch.</desc>
    <defs>
        <polygon id="path-1" points="0.00093933464 11.0759987 0.00093933464 0.00888926926 15.9913894 0.00888926926 15.9913894 11.0759987"></polygon>
    </defs>
    <g id="Page-1" stroke="none" stroke-width="1" fill="none" fill-rule="evenodd">
        <g id="Artboard">
            <g id="icon-youtube" transform="translate(0.000000, 2.000000)">
                <g id="Page-1">
                    <g>
                        <g id="icon-youtube">
                            <g id="YouTube_light_color_icon">
                                <g id="Fill-3-Clipped">
                                    <mask id="mask-2" fill="white">
                                        <use xlink:href="#path-1"></use>
                                    </mask>
                                    <g id="path-1"></g>
                                    <path d="M6.34476714,7.58408731 L6.34403131,3.16256168 L10.6649706,5.3810275 L6.34476714,7.58408731 Z M15.8317026,2.39659014 C15.8317026,2.39659014 15.6754599,1.31217631 15.1959609,0.834636137 C14.5878669,0.207873329 13.9062544,0.204761314 13.5936751,0.168079598 C11.3559139,0.00888926926 7.99915457,0.00888926926 7.99915457,0.00888926926 L7.99220354,0.00888926926 C7.99220354,0.00888926926 4.6355225,0.00888926926 2.39768298,0.168079598 C2.08508806,0.204761314 1.40372603,0.207873329 0.795412914,0.834636137 C0.315945206,1.31217631 0.159921722,2.39659014 0.159921722,2.39659014 C0.159921722,2.39659014 0,3.67005114 0,4.94349674 L0,6.13735486 C0,7.41078509 0.159921722,8.68423069 0.159921722,8.68423069 C0.159921722,8.68423069 0.315945206,9.76865989 0.795412914,10.2462001 C1.40372603,10.8729783 2.20278669,10.8531507 2.55868493,10.918842 C3.83801174,11.0395635 7.99569474,11.0769231 7.99569474,11.0769231 C7.99569474,11.0769231 11.3559139,11.0719469 13.5936751,10.912772 C13.9062544,10.8760749 14.5878669,10.8729783 15.1959609,10.2462001 C15.6754599,9.76865989 15.8317026,8.68423069 15.8317026,8.68423069 C15.8317026,8.68423069 15.9913894,7.41078509 15.9913894,6.13735486 L15.9913894,4.94349674 C15.9913894,3.67005114 15.8317026,2.39659014 15.8317026,2.39659014 L15.8317026,2.39659014 Z" id="Fill-3" fill="#FFFFFF" mask="url(#mask-2)"></path>
                                </g>
                            </g>
                        </g>
                    </g>
                </g>
            </g>
        </g>
    </g>
</svg>